HIERARCHY
ROOT Hips
{
  OFFSET 0 89.5177 0.535
  CHANNELS 6 Xposition Yposition Zposition Zrotation Xrotation Yrotation
  JOINT Spine
  {
    OFFSET 12.0259 -0.162855 1.69034e-005
    CHANNELS 3 Zrotation Xrotation Yrotation
    JOINT Spine1
    {
      OFFSET 15.3169 -0.0121922 0
      CHANNELS 3 Zrotation Xrotation Yrotation
      JOINT Spine2
      {
        OFFSET 15.3176 -0.0121908 0
        CHANNELS 3 Zrotation Xrotation Yrotation
        JOINT Neck
        {
          OFFSET 19.9142 1.56338 0
          CHANNELS 3 Zrotation Xrotation Yrotation
          JOINT Head
          {
            OFFSET 6.92651 0 0
            CHANNELS 3 Zrotation Xrotation Yrotation
            End Site
            {
              OFFSET 20.7666 0 0
            }
          }
          JOINT LeftShoulder
          {
            OFFSET -6.20654 0.708824 7.28219
            CHANNELS 3 Zrotation Xrotation Yrotation
            JOINT LeftArm
            {
              OFFSET 14.108 0 -1.52588e-005
              CHANNELS 3 Zrotation Xrotation Yrotation
              JOINT LeftForeArm
              {
                OFFSET 28.5802 0 0
                CHANNELS 3 Zrotation Xrotation Yrotation
                JOINT LeftHand
                {
                  OFFSET 27.092 0 0
                  CHANNELS 3 Zrotation Xrotation Yrotation
                  End Site
                  {
                    OFFSET 9.55928 -0.186424 0.145352
                  }
                }
              }
            }
          }
          JOINT RightShoulder
          {
            OFFSET -6.20654 0.708866 -7.28218
            CHANNELS 3 Zrotation Xrotation Yrotation
            JOINT RightArm
            {
              OFFSET 14.108 0 1.52588e-005
              CHANNELS 3 Zrotation Xrotation Yrotation
              JOINT RightForeArm
              {
                OFFSET 28.5802 0 0
                CHANNELS 3 Zrotation Xrotation Yrotation
                JOINT RightHand
                {
                  OFFSET 27.092 0 0
                  CHANNELS 3 Zrotation Xrotation Yrotation
                  End Site
                  {
                    OFFSET 9.55929 -0.186417 -0.145354
                  }
                }
              }
            }
          }
        }
      }
    }
  }
  JOINT LeftUpLeg
  {
    OFFSET 0.005 -0.535 8.837
    CHANNELS 3 Zrotation Xrotation Yrotation
    JOINT LeftLeg
    {
      OFFSET 39.9035 0 0
      CHANNELS 3 Zrotation Xrotation Yrotation
      JOINT LeftFoot
      {
        OFFSET 39.6689 0 0
        CHANNELS 3 Zrotation Xrotation Yrotation
        JOINT LeftToe
        {
          OFFSET 10.1624 13.6296 0
          CHANNELS 3 Zrotation Xrotation Yrotation
          End Site
          {
            OFFSET 8.38147 0 0
          }
        }
      }
    }
  }
  JOINT RightUpLeg
  {
    OFFSET 0.005 -0.535 -8.837
    CHANNELS 3 Zrotation Xrotation Yrotation
    JOINT RightLeg
    {
      OFFSET 39.9035 0 0
      CHANNELS 3 Zrotation Xrotation Yrotation
      JOINT RightFoot
      {
        OFFSET 39.6689 0 0
        CHANNELS 3 Zrotation Xrotation Yrotation
        JOINT RightToe
        {
          OFFSET 10.1624 13.6296 0
          CHANNELS 3 Zrotation Xrotation Yrotation
          End Site
          {
            OFFSET 8.38147 0 0
          }
        }
      }
    }
  }
}
MOTION
Frames:	13
Frame Time:	0.0333333
222.295 89.1474 -35.1142 -142.008 -84.586 130.097 -0.0185881 -1.77443 -1.05982 -0.0700657 -3.54774 -2.12157 -0.070066 -3.54774 -2.12158 -8.30987e-012 -9.0191e-006 -5.27751e-005 7.64313 1.82592 0.714934 -178.507 -27.1308 -86.7297 -12.4298 -47.4847 18.56 -13.5702 3.18055e-015 -1.59028e-015 -32.4915 -53.5741 -36.0783 -179.181 19.502 87.5479 -14.007 49.9049 -14.0245 -11.8336 -3.18055e-015 -1.2921e-015 -71.0579 64.9316 74.8236 -1.0762 11.1271 -177.64 -7.80812 3.18055e-015 -9.93923e-016 11.2247 6.64805 -10.0677 90 1.81313e-016 9.93923e-017 -12.3342 -15.3799 169.379 -22.2189 3.18056e-015 -1.59028e-015 25.8474 -17.311 15.8862 90 -1.25483e-015 -9.93923e-017 
222.305 89.1447 -35.134 -142.968 -84.6465 129.155 -0.0194944 -1.78491 -1.05142 -0.0718129 -3.5687 -2.10481 -0.0718131 -3.5687 -2.10482 -8.30748e-012 -9.0191e-006 -5.27751e-005 7.75874 1.83319 0.696276 -178.521 -27.1218 -86.7577 -12.4702 -47.5733 18.5924 -13.3766 3.18055e-015 -3.18055e-015 -32.4921 -53.538 -36.0733 -179.191 19.5007 87.5766 -13.8474 50.0503 -14.1398 -11.8141 6.36111e-015 -2.48481e-016 -71.0631 64.943 74.8291 -1.05697 11.0652 -177.649 -7.75513 1.59028e-015 -5.96354e-016 11.2123 6.68046 -10.1167 90 6.18096e-016 -0 -12.3111 -15.4451 169.364 -22.2136 3.18056e-015 -0 25.8911 -17.2793 15.821 90 -6.08778e-016 -0 
222.319 89.1448 -35.1554 -143.366 -84.7259 128.752 -0.0149115 -1.79092 -1.03998 -0.0565821 -3.58086 -2.08169 -0.0565824 -3.58086 -2.0817 -8.30748e-012 -9.0191e-006 -5.27751e-005 7.79787 1.88723 0.664429 -178.527 -27.1386 -86.7737 -12.4966 -47.7341 18.6317 -13.2194 -6.36111e-015 -3.18055e-015 -32.5072 -53.4841 -36.0811 -179.179 19.5013 87.5432 -13.7523 50.1011 -14.1542 -11.888 -3.18055e-015 2.48481e-016 -71.0971 64.9383 74.8671 -0.998558 10.9973 -177.638 -7.71717 1.59028e-015 7.95139e-016 11.1813 6.68873 -10.1288 90 -4.70561e-016 -0 -12.1982 -15.4263 169.396 -22.1452 0 -1.59028e-015 25.8261 -17.2006 15.7441 90 -4.47266e-016 9.93923e-017 
222.322 89.1446 -35.1751 -143.622 -84.7961 128.498 -0.00812012 -1.79222 -1.0277 -0.0484414 -3.58353 -2.05699 -0.0484417 -3.58353 -2.057 -8.30828e-012 -9.0191e-006 -5.27751e-005 7.93525 1.92404 0.619291 -178.538 -27.1345 -86.7979 -12.5324 -47.7365 18.6541 -13.1427 -3.18055e-015 3.18055e-015 -32.533 -53.4583 -36.1045 -179.186 19.5293 87.5657 -13.6294 50.1925 -14.2527 -11.9234 -3.18055e-015 1.39149e-015 -71.1989 64.8969 74.9809 -0.949968 10.9401 -177.637 -7.71211 -1.59028e-015 -1.98785e-016 11.1737 6.69191 -10.1334 90 9.70628e-016 1.98785e-016 -12.1306 -15.487 169.392 -22.1227 -3.18056e-015 -1.59028e-015 25.785 -17.1785 15.734 90 9.31803e-016 -2.98177e-016 
222.32 89.145 -35.2053 -143.715 -84.8815 128.413 -0.0060502 -1.79643 -1.01686 -0.044113 -3.59494 -2.03524 -0.0441132 -3.59494 -2.03525 -8.30669e-012 -9.0191e-006 -5.27751e-005 8.17347 2.00938 0.532289 -178.55 -27.1315 -86.8228 -12.5496 -47.8013 18.6689 -13.0533 3.18055e-015 -4.77083e-015 -32.5529 -53.4141 -36.1189 -179.192 19.4956 87.5797 -13.5419 50.339 -14.2863 -11.8788 -9.54166e-015 -8.94531e-016 -71.1495 64.8699 74.9268 -0.866133 10.8942 -177.648 -7.69743 0 3.97569e-016 11.1645 6.70132 -10.1473 90 3.40108e-016 -0 -12.0105 -15.4956 169.398 -22.0672 -3.18056e-015 -7.95139e-016 25.7523 -17.1111 15.659 90 -7.0817e-016 -0 
222.309 89.1453 -35.2441 -143.563 -84.9872 128.579 0.00277858 -1.79999 -1.0111 -0.0262475 -3.59928 -2.02344 -0.0262478 -3.59928 -2.02345 -8.30669e-012 -9.0191e-006 -5.27751e-005 8.38989 2.062 0.482162 -178.562 -27.1496 -86.8509 -12.6028 -47.9187 18.6926 -12.9991 6.36111e-015 6.36111e-015 -32.5639 -53.4046 -36.129 -179.192 19.4759 87.5791 -13.4766 50.4026 -14.3143 -11.8538 0 1.44119e-015 -71.1463 64.7986 74.9252 -0.717188 10.818 -177.682 -7.6321 0 -9.93923e-016 11.14 6.67972 -10.1145 90 -8.12222e-016 -0 -11.8691 -15.5171 169.374 -22.0299 1.27222e-014 3.18056e-015 25.735 -17.0915 15.6684 90 1.25483e-015 -0 
222.305 89.1459 -35.267 -143.602 -85.0839 128.557 0.00958943 -1.80133 -1.00814 -0.0126745 -3.60689 -2.01732 -0.0126748 -3.60689 -2.01733 -8.30748e-012 -9.0191e-006 -5.27751e-005 8.52496 2.08408 0.471021 -178.558 -27.1764 -86.8452 -12.7358 -47.9459 18.6507 -13.0052 6.36111e-015 1.59028e-015 -32.6561 -53.3787 -36.2231 -179.193 19.4725 87.5805 -13.2952 50.5257 -14.4687 -11.9509 1.59028e-014 5.96354e-016 -71.1827 64.8074 74.9653 -0.627233 10.7576 -177.704 -7.62701 -1.59028e-015 -1.78906e-015 11.1383 6.68154 -10.1171 90 3.80875e-016 -0 -11.7436 -15.4978 169.365 -21.9778 0 -7.95139e-016 25.6903 -17.0268 15.6048 90 -2.74571e-015 1.98785e-016 
222.302 89.1455 -35.2819 -143.523 -85.1489 128.644 0.00959272 -1.80208 -1.00331 -0.00782508 -3.60951 -2.00756 -0.00782536 -3.60951 -2.00757 -8.30748e-012 -9.0191e-006 -5.27751e-005 8.60659 2.11325 0.454687 -178.557 -27.1676 -86.8484 -12.773 -47.8446 18.6419 -13.1242 1.27222e-014 1.59028e-015 -32.6973 -53.4303 -36.2749 -179.188 19.4495 87.5639 -12.957 50.6886 -14.7408 -12.2441 0 -1.59028e-015 -71.3033 64.7976 75.0993 -0.575714 10.7146 -177.713 -7.65167 -4.77083e-015 3.97569e-016 11.1567 6.67943 -10.114 90 -2.48481e-016 -0 -11.6985 -15.5715 169.331 -22.0009 0 -4.77083e-015 25.7234 -17.057 15.651 90 -2.83268e-015 2.98177e-016 
222.301 89.1451 -35.2814 -143.286 -85.1704 128.88 0.00953665 -1.8024 -0.993194 -0.0114688 -3.60886 -1.98744 -0.0114691 -3.60886 -1.98745 -8.30907e-012 -9.0191e-006 -5.27751e-005 8.64034 2.13301 0.408651 -178.568 -27.1213 -86.861 -12.6341 -47.8163 18.7548 -13.2193 6.36111e-015 -4.77083e-015 -32.6855 -53.4707 -36.2687 -179.2 19.3956 87.5919 -12.4961 50.9735 -15.1626 -12.5574 -6.36111e-015 -2.48481e-015 -71.3874 64.7763 75.1932 -0.559397 10.7237 -177.711 -7.67677 -1.59028e-015 -3.97569e-016 11.1696 6.68125 -10.1168 90 -1.34587e-015 9.93923e-017 -11.6803 -15.5842 169.333 -22.0193 9.54167e-015 -7.95139e-016 25.7361 -17.0688 15.658 90 -1.00635e-015 1.98785e-016 
222.301 89.1446 -35.2678 -142.865 -85.1721 129.297 0.00917748 -1.80247 -0.987308 -0.016554 -3.60432 -1.97568 -0.0165543 -3.60432 -1.97569 -8.30669e-012 -9.0191e-006 -5.27751e-005 8.61443 2.16426 0.393492 -178.565 -27.1297 -86.8561 -12.6606 -47.845 18.7786 -13.1396 -6.36111e-015 4.77083e-015 -32.5825 -53.5057 -36.1644 -179.185 19.4016 87.5482 -12.3994 50.9847 -15.3058 -12.7208 0 9.93923e-016 -71.48 64.7476 75.2968 -0.546022 10.7182 -177.708 -7.6869 -1.59028e-015 -1.19271e-015 11.1709 6.65582 -10.0781 90 -6.3945e-016 9.93923e-017 -11.6835 -15.5775 169.334 -22.0451 -3.18056e-015 -2.38542e-015 25.751 -17.0883 15.6672 90 -1.00635e-015 2.98177e-016 
222.3 89.1439 -35.2449 -142.325 -85.1486 129.835 0.00879117 -1.79748 -0.981336 -0.0173499 -3.59434 -1.96375 -0.0173502 -3.59434 -1.96376 -8.30748e-012 -9.0191e-006 -5.27751e-005 8.54133 2.19811 0.407177 -178.595 -27.0958 -86.9175 -12.5455 -47.9021 18.9263 -13.0228 6.36111e-015 -1.59028e-015 -32.649 -53.456 -36.2275 -179.178 19.3749 87.5229 -12.3996 51.0589 -15.3461 -12.6452 -6.36111e-015 4.96962e-016 -71.4035 64.7977 75.2237 -0.571279 10.7615 -177.706 -7.73952 1.59028e-015 -1.98785e-016 11.1952 6.65278 -10.0738 90 9.86158e-017 2.98177e-016 -11.7114 -15.5347 169.333 -22.079 0 1.59028e-015 25.7792 -17.1095 15.6698 90 -6.08778e-016 9.93923e-017 
222.294 89.1428 -35.2119 -141.757 -85.1091 130.407 0.00828596 -1.79288 -0.977061 -0.0179892 -3.58515 -1.95517 -0.0179894 -3.58515 -1.95518 -8.30669e-012 -9.0191e-006 -5.27751e-005 8.42114 2.21959 0.390816 -178.594 -27.0651 -86.9128 -12.4866 -47.8628 18.9842 -12.9742 -3.18055e-015 3.18055e-015 -32.6043 -53.4575 -36.1802 -179.184 19.3392 87.5385 -12.2614 51.2318 -15.531 -12.5482 -9.54166e-015 1.09332e-015 -71.4253 64.7897 75.2472 -0.622147 10.8109 -177.708 -7.81272 4.77083e-015 1.19271e-015 11.2171 6.65164 -10.0654 90 1.13331e-015 9.93923e-017 -11.7854 -15.543 169.309 -22.1449 3.18056e-015 4.77083e-015 25.8297 -17.1578 15.6948 90 -4.84538e-016 9.93923e-017 
222.287 89.1413 -35.168 -141.233 -85.0424 130.952 0.00769776 -1.78636 -0.976469 -0.0185425 -3.57212 -1.95325 -0.0185427 -3.57212 -1.95326 -8.30907e-012 -9.0191e-006 -5.27751e-005 8.27771 2.23229 0.39237 -178.607 -27.0244 -86.9354 -12.3329 -47.849 19.1412 -12.9695 -1.27222e-014 -7.95139e-015 -32.5632 -53.437 -36.1333 -179.189 19.3109 87.5484 -12.0611 51.4086 -15.7579 -12.5265 6.36111e-015 1.19271e-015 -71.4488 64.7621 75.272 -0.690092 10.8797 -177.729 -7.87431 -3.18055e-015 7.95139e-016 11.241 6.65068 -10.0565 90 -7.30689e-016 9.93923e-017 -11.9093 -15.5168 169.269 -22.2418 -3.18056e-015 2.38542e-015 25.9045 -17.2247 15.7197 90 -1.19271e-015 2.98177e-016 
